<?xml version="1.0" encoding="UTF-8" standalone="no"?>
<!DOCTYPE svg PUBLIC "-//W3C//DTD SVG 1.1//EN"
 "http://www.w3.org/Graphics/SVG/1.1/DTD/svg11.dtd">
<!-- Generated by graphviz version 2.43.0 (0)
 -->
<!-- Title: g Pages: 1 -->
<svg width="409pt" height="98pt"
 viewBox="0.00 0.00 409.27 98.00" xmlns="http://www.w3.org/2000/svg" xmlns:xlink="http://www.w3.org/1999/xlink">
<g id="graph0" class="graph" transform="scale(1 1) rotate(0) translate(4 94)">
<title>g</title>
<polygon fill="white" stroke="transparent" points="-4,4 -4,-94 405.27,-94 405.27,4 -4,4"/>
<!-- Graphviz -->
<g id="node1" class="node">
<title>Graphviz</title>
<g id="a_node1"><a xlink:href="https://graphviz.org" xlink:title="Graphviz">
<ellipse fill="none" stroke="black" cx="46.15" cy="-45" rx="46.29" ry="18"/>
<text text-anchor="middle" x="46.15" y="-41.3" font-family="Roboto,Arial,sans-serif" font-size="14.00" fill="blue">Graphviz</text>
</a>
</g>
</g>
<!-- Org Mode -->
<g id="node2" class="node">
<title>Org Mode</title>
<ellipse fill="none" stroke="black" cx="206.99" cy="-45" rx="50.89" ry="18"/>
<text text-anchor="middle" x="206.99" y="-41.3" font-family="Roboto,Arial,sans-serif" font-size="14.00" fill="#000000">Org Mode</text>
</g>
<!-- Graphviz&#45;&gt;Org Mode -->
<g id="edge1" class="edge">
<title>Graphviz&#45;&gt;Org Mode</title>
<path fill="none" stroke="black" d="M92.66,-45C109.29,-45 128.36,-45 146.06,-45"/>
<polygon fill="black" stroke="black" points="146.29,-48.5 156.29,-45 146.29,-41.5 146.29,-48.5"/>
<text text-anchor="middle" x="124.29" y="-48.8" font-family="Roboto,Arial,sans-serif" font-size="14.00" fill="#000000">SVG</text>
</g>
<!-- HTML -->
<g id="node3" class="node">
<title>HTML</title>
<ellipse fill="none" stroke="black" cx="347.98" cy="-72" rx="35.19" ry="18"/>
<text text-anchor="middle" x="347.98" y="-68.3" font-family="Roboto,Arial,sans-serif" font-size="14.00" fill="#000000">HTML</text>
</g>
<!-- Org Mode&#45;&gt;HTML -->
<g id="edge2" class="edge">
<title>Org Mode&#45;&gt;HTML</title>
<path fill="none" stroke="black" d="M251.96,-53.54C268.83,-56.82 288.01,-60.55 304.71,-63.79"/>
<polygon fill="black" stroke="black" points="304.26,-67.27 314.74,-65.74 305.59,-60.4 304.26,-67.27"/>
</g>
<!-- Markdown -->
<g id="node4" class="node">
<title>Markdown</title>
<ellipse fill="none" stroke="black" cx="347.98" cy="-18" rx="53.09" ry="18"/>
<text text-anchor="middle" x="347.98" y="-14.3" font-family="Roboto,Arial,sans-serif" font-size="14.00" fill="#000000">Markdown</text>
</g>
<!-- Org Mode&#45;&gt;Markdown -->
<g id="edge3" class="edge">
<title>Org Mode&#45;&gt;Markdown</title>
<path fill="none" stroke="black" d="M251.96,-36.46C264.51,-34.02 278.35,-31.33 291.49,-28.78"/>
<polygon fill="black" stroke="black" points="292.22,-32.2 301.37,-26.86 290.89,-25.33 292.22,-32.2"/>
</g>
</g>
</svg>
